{
  "accessors": [
    {
      "bufferView": 2,
      "componentType": 5126,
      "count": 4180,
      "max": [
        2.0775561332702637,
        9.634852409362793,
        3.4521582126617432
      ],
      "min": [
        -1.7739744186401367,
        0.46376681327819824,
        -2.8333215713500977
      ],
      "type": "VEC3"
    },
    {
      "bufferView": 2,
      "byteOffset": 50160,
      "componentType": 5126,
      "count": 4180,
      "max": [
        0.99979525804519653,
        0.99957036972045898,
        0.9999423623085022
      ],
      "min": [
        -0.99945926666259766,
        -0.9954293966293335,
        -0.99995774030685425
      ],
      "type": "VEC3"
    },
    {
      "bufferView": 3,
      "componentType": 5126,
      "count": 4180,
      "max": [
        0.99998444318771362,
        0.99983394145965576,
        0.9981842041015625,
        1
      ],
      "min": [
        -0.99998635053634644,
        -0.99998581409454346,
        -0.99881935119628906,
        -1
      ],
      "type": "VEC4"
    },
    {
      "bufferView": 1,
      "componentType": 5126,
      "count": 4180,
      "max": [
        0.99060100317001343,
        0.99612802267074585
      ],
      "min": [
        0.0046910000964999199,
        0.0020520000252872705
      ],
      "type": "VEC2"
    },
    {
      "bufferView": 0,
      "componentType": 5125,
      "count": 6228,
      "max": [
        4179
      ],
      "min": [
        0
      ],
      "type": "SCALAR"
    },
    {
      "bufferView": 2,
      "byteOffset": 100320,
      "componentType": 5126,
      "count": 85,
      "max": [
        4.0044035911560059,
        0.480855792760849,
        4.0044035911560059
      ],
      "min": [
        -4.0044035911560059,
        0,
        -4.0044035911560059
      ],
      "type": "VEC3"
    },
    {
      "bufferView": 2,
      "byteOffset": 101340,
      "componentType": 5126,
      "count": 85,
      "max": [
        0.60884249210357666,
        1,
        0.60884243249893188
      ],
      "min": [
        -0.60884213447570801,
        -1,
        -0.60884207487106323
      ],
      "type": "VEC3"
    },
    {
      "bufferView": 3,
      "byteOffset": 66880,
      "componentType": 5126,
      "count": 85,
      "max": [
        0,
        0,
        0,
        1
      ],
      "min": [
        0,
        0,
        0,
        1
      ],
      "type": "VEC4"
    },
    {
      "bufferView": 0,
      "byteOffset": 24912,
      "componentType": 5125,
      "count": 132,
      "max": [
        84
      ],
      "min": [
        0
      ],
      "type": "SCALAR"
    }
  ],
  "asset": {
    "extras": {
      "author": "PencilFluke (https://sketchfab.com/pencilfluke)",
      "license": "CC-BY-4.0 (http://creativecommons.org/licenses/by/4.0/)",
      "source": "https://sketchfab.com/models/394daab5b8014a7b9805c7e9302e8beb",
      "title": "90s Dad"
    },
    "generator": "Sketchfab-3.20.7",
    "version": "2.0"
  },
  "bufferViews": [
    {
      "buffer": 0,
      "byteLength": 25440,
      "byteOffset": 0,
      "name": "floatBufferViews",
      "target": 34963
    },
    {
      "buffer": 0,
      "byteLength": 33440,
      "byteOffset": 25440,
      "byteStride": 8,
      "name": "floatBufferViews",
      "target": 34962
    },
    {
      "buffer": 0,
      "byteLength": 102360,
      "byteOffset": 58880,
      "byteStride": 12,
      "name": "floatBufferViews",
      "target": 34962
    },
    {
      "buffer": 0,
      "byteLength": 68240,
      "byteOffset": 161240,
      "byteStride": 16,
      "name": "floatBufferViews",
      "target": 34962
    }
  ],
  "buffers": [
    {
      "byteLength": 229480,
      "uri": "scene.bin"
    }
  ],
  "extensionsUsed": [
    "KHR_materials_unlit"
  ],
  "images": [
    {
      "uri": "textures/lambert2_baseColor.jpeg"
    }
  ],
  "materials": [
    {
      "doubleSided": true,
      "emissiveFactor": [
        0,
        0,
        0
      ],
      "extensions": {
        "KHR_materials_unlit": {}
      },
      "name": "lambert2",
      "pbrMetallicRoughness": {
        "baseColorFactor": [
          1,
          1,
          1,
          1
        ],
        "baseColorTexture": {
          "index": 0,
          "texCoord": 0
        },
        "metallicFactor": 0,
        "roughnessFactor": 1
      }
    },
    {
      "doubleSided": true,
      "emissiveFactor": [
        0,
        0,
        0
      ],
      "extensions": {
        "KHR_materials_unlit": {}
      },
      "name": "blinn1",
      "pbrMetallicRoughness": {
        "baseColorFactor": [
          0.0048959999999999993,
          0.0040290000000000005,
          0.0040290000000000005,
          1
        ],
        "metallicFactor": 0,
        "roughnessFactor": 1
      }
    }
  ],
  "meshes": [
    {
      "name": "polySurface37_lambert2_0",
      "primitives": [
        {
          "attributes": {
            "NORMAL": 1,
            "POSITION": 0,
            "TANGENT": 2,
            "TEXCOORD_0": 3
          },
          "indices": 4,
          "material": 0,
          "mode": 4
        }
      ]
    },
    {
      "name": "polySurface37_blinn1_0",
      "primitives": [
        {
          "attributes": {
            "NORMAL": 6,
            "POSITION": 5,
            "TANGENT": 7
          },
          "indices": 8,
          "material": 1,
          "mode": 4
        }
      ]
    }
  ],
  "nodes": [
    {
      "children": [
        1
      ],
      "name": "RootNode (gltf orientation matrix)",
      "rotation": [
        -0.70710678118654746,
        -0,
        -0,
        0.70710678118654757
      ]
    },
    {
      "children": [
        2
      ],
      "name": "RootNode (model correction matrix)"
    },
    {
      "children": [
        3
      ],
      "matrix": [
        1,
        0,
        0,
        0,
        0,
        0,
        1,
        0,
        0,
        -1,
        0,
        0,
        0,
        0,
        0,
        1
      ],
      "name": "90sDadPose.fbx"
    },
    {
      "children": [
        4
      ],
      "name": "RootNode"
    },
    {
      "children": [
        5,
        6
      ],
      "name": "polySurface37"
    },
    {
      "mesh": 0,
      "name": "polySurface37_lambert2_0"
    },
    {
      "mesh": 1,
      "name": "polySurface37_blinn1_0"
    }
  ],
  "samplers": [
    {
      "magFilter": 9729,
      "minFilter": 9987,
      "wrapS": 10497,
      "wrapT": 10497
    }
  ],
  "scene": 0,
  "scenes": [
    {
      "name": "OSG_Scene",
      "nodes": [
        0
      ]
    }
  ],
  "textures": [
    {
      "sampler": 0,
      "source": 0
    }
  ]
}

